# xmcd
#
# Track frame offsets:
#	150
#	25753
#	40294
#	67945
#	113262
#	125881
#	211238
#	229987
#	303464
#
# Disc length: 4344 seconds
#
# Revision: 0
# Processed by: cddbd v1.5.2PL0 Copyright (c) Steve Scherf et al.
# Submitted via: audiograbber 1.83.01
#
DISCID=7410f609
DTITLE=Driftin - no_name
DYEAR=2006
DGENRE=Rock
TTITLE0=The Funky Groove
TTITLE1=Beach Girl
TTITLE2=Good Guys - Bad Guys
TTITLE3=Mlanchonly Sugar and Blasting - Celestial
TTITLE4=She got me
TTITLE5=A Space Jam
TTITLE6=Number Six
TTITLE7=The Lost Jam Part 1
TTITLE8=The Lost Jam Part 2
EXTD=
EXTT0=
EXTT1=
EXTT2=
EXTT3=
EXTT4=
EXTT5=
EXTT6=
EXTT7=
EXTT8=
PLAYORDER=
